<svg width="240" height="241" viewBox="0 0 240 241" fill="none" xmlns="http://www.w3.org/2000/svg">
<g clip-path="url(#clip0_1892_15838)">
<path d="M224.422 126.579C223.602 110.629 216.351 94.9703 203.519 83.166C192.06 72.6229 176.283 65.1193 159.222 63.8638C138.308 62.328 119.848 65.9981 101.84 74.109C92.5272 78.3076 81.8855 86.5879 72.3576 90.436C67.4541 92.4156 62.4546 94.22 57.3213 95.7295C52.4643 97.1572 47.5201 98.3689 42.7184 99.9309C38.3238 101.362 34.0427 103.099 30.2589 105.49C27.1004 107.487 24.3113 109.873 21.9468 112.532C17.0665 118.018 13.9982 124.611 12.9017 131.394C11.02 143.017 17.7151 162.258 42.3839 172.83C51.6587 176.804 61.9544 178.792 72.3605 178.792H181.631C190.205 178.792 198.503 176.141 204.843 171.277C204.883 171.248 204.924 171.213 204.965 171.183C219.46 159.995 225.254 142.751 224.419 126.582L224.422 126.579Z" fill="#FFF7EA"/>
<path d="M182.617 98.0941C182.125 98.1291 173.353 102.964 172.373 99.5714C171.393 96.1787 181.232 95.9685 181.232 95.9685C181.232 95.9685 162.217 87.9919 164.195 84.6342C166.173 81.2766 180.779 93.0342 180.779 93.0342C180.779 93.0342 168.258 72.9087 171.969 69.6766C175.68 66.4415 182.494 89.4488 182.494 89.4488C182.494 89.4488 187.078 56.9671 194.154 62.8882C201.227 68.8123 185.033 90.5028 185.033 90.5028C185.033 90.5028 207.108 61.4634 212.363 66.0328C217.616 70.6021 187.52 94.2809 187.52 94.2809C187.52 94.2809 214.132 80.497 215.254 85.8576C216.374 91.2182 188.643 96.1787 188.643 96.1787C188.643 96.1787 211.159 94.0678 210.773 99.04C210.389 104.015 188.081 98.6897 188.081 98.6897C188.081 98.6897 197.641 108.392 193.843 110.395C190.045 112.398 185.159 99.1452 185.159 99.1452C185.159 99.1452 184.705 106.599 183.39 105.455C182.076 104.313 182.62 98.0911 182.62 98.0911" fill="#FEE8C1"/>
<path d="M165.431 74.4333C165.431 74.4333 179.682 71.8873 179.237 69.9398C178.795 67.9924 166.277 70.6318 166.277 70.6318C166.277 70.6318 177.128 60.7778 173.21 57.4844C170.459 55.172 165.058 69.9282 165.058 69.9282C165.058 69.9282 168.833 50.6172 164.93 47.8231C161.027 45.0289 163.107 68.5296 163.107 68.5296C163.107 68.5296 156.106 45.2946 149.879 43.4026C143.653 41.5107 158.994 66.6026 158.994 66.6026C158.994 66.6026 143.81 53.6888 142.297 57.642C140.788 61.5953 158.302 70.2055 158.302 70.2055C158.302 70.2055 144.944 67.4873 145.924 72.5092C146.904 77.5311 163.174 72.7778 163.174 72.7778C163.174 72.7778 153.015 78.0157 154.568 81.4318C156.121 84.8479 165.428 74.4333 165.428 74.4333" fill="#FEE8C1"/>
<path d="M169.602 148.138C169.649 147.683 174.75 99.6041 185.694 86.5063L185.04 85.9574C180.366 91.5486 176.251 103.233 172.807 120.684C171.743 126.083 170.911 131.225 170.303 135.394C170.39 131.592 170.317 127.046 170.248 122.387C169.695 84.8421 166.83 71.8902 162.692 68.9238L162.197 69.6187C171.6 76.3603 168.785 147.624 168.753 148.062L169.602 148.138Z" fill="#FEE8C1"/>
<path d="M166.55 143.45C166.509 143.251 161.844 120.854 155.01 117.753L155.362 116.974C158.421 118.36 161.306 122.755 163.941 130.033C165.884 135.397 167.373 143.222 167.385 143.271L166.55 143.45Z" fill="#FEE8C1"/>
<path d="M156.223 116.133C156.223 116.133 149.996 107.052 148.856 109.353C147.719 111.654 154.504 116.232 154.504 116.232C154.504 116.232 142.574 114.83 143.155 117.511C143.734 120.191 153.172 117.481 153.172 117.481C153.172 117.481 138.979 125.473 141.567 129.87C144.156 134.267 153.844 119.49 153.844 119.49C153.844 119.49 149.67 127.452 152.061 129.362C154.451 131.271 155.752 119.487 155.752 119.487C155.752 119.487 157.116 129.254 159.306 127.715C161.496 126.176 157.086 118.719 157.086 118.719C157.086 118.719 162.339 120.141 161.76 118.419C161.181 116.696 156.22 116.135 156.22 116.135" fill="#FEE8C1"/>
<path d="M154.344 146.145L181.453 146.647L181.813 140.507L154.32 140.188L154.344 146.145Z" fill="#FEE8C1"/>
<path d="M179.236 144.302C179.236 144.302 177.378 163.552 176.2 164.034C175.022 164.515 159.488 164.393 159 163.712C158.511 163.032 156.693 143.882 156.693 143.882L179.236 144.302Z" fill="#FEE8C1"/>
<path d="M203.93 117.496C203.93 117.496 193.864 122.042 193.457 119.619C193.105 117.523 192.355 115.409 192.163 114.874C192.131 114.79 192.113 114.746 192.113 114.746C192.113 114.746 192.099 114.752 192.07 114.766C191.738 114.921 189.58 115.905 188.626 115.365C188.44 115.26 188.28 115 188.141 114.635C188.12 114.582 188.1 114.53 188.082 114.472C187.701 113.353 187.579 112.139 187.451 110.971C187.335 109.914 187.161 108.801 187.178 107.739C187.187 107.237 187.12 106.746 187.192 106.241C187.251 105.835 187.358 105.435 187.454 105.035C187.661 104.194 187.818 103.342 187.928 102.483C187.978 102.101 188.033 101.785 188.181 101.432C188.641 100.337 189.007 99.2336 189.7 98.2526C190.142 97.6248 190.694 97.0642 191.349 96.6613C191.651 96.4745 192.003 96.2642 192.361 96.2467C192.759 96.2292 193.163 96.3577 193.539 96.4745C194.914 96.8978 196.171 97.7095 197.337 98.5358C199.579 100.124 201.641 101.987 203.578 103.931C203.744 104.098 203.907 104.261 204.07 104.431C204.07 104.431 203.127 112.384 203.061 113.715C202.991 115.047 203.927 117.493 203.927 117.493L203.93 117.496Z" fill="#FFC7B3"/>
<path d="M190.282 96.2228C190.014 96.5177 188.755 99.309 189.229 101.032C189.703 102.754 190.532 103.078 190.756 104.223C190.98 105.364 190.936 106.211 191.201 106.509C191.352 106.678 191.785 106.675 191.986 106.71C192.504 106.798 193.018 106.886 193.521 107.035C194.039 107.189 194.583 107.364 194.915 107.814C195.296 108.331 195.496 108.953 195.723 109.545C196.145 110.661 196.674 111.735 197.299 112.751C197.808 113.58 198.541 114.529 199.504 114.859C201.554 115.563 203.256 114.43 204.658 113.005C204.943 112.716 205.242 112.398 205.297 111.995C205.332 111.753 205.268 111.499 205.318 111.259C205.405 110.824 205.815 110.547 206.158 110.267C206.97 109.607 207.557 108.687 207.845 107.686C208.09 106.845 208.351 105.762 208.22 104.886C207.985 103.3 207.47 101.671 206.734 100.243C206.734 100.243 212.03 101.367 212.19 98.2637C212.35 95.1601 210.399 94.7776 210.399 94.7776C210.399 94.7776 211.905 92.8768 211.373 92.2812C210.841 91.6885 209.997 91.6447 209.997 91.6447C209.997 91.6447 208.587 86.1966 205.071 88.8418C201.554 91.4871 202.517 94.6491 202.517 94.6491C202.517 94.6491 195.953 90.0097 190.282 96.2228Z" fill="#2E3233"/>
<path d="M206.289 99.9569C204.282 99.3466 202.659 97.1948 202.686 95.0839C202.694 94.4269 202.098 94.789 201.993 95.443C201.333 99.5247 203.753 101.624 205.946 100.999C206.621 100.806 206.961 100.164 206.289 99.9598V99.9569Z" fill="#ED1A60"/>
<path d="M193.637 104.926C191.31 104.304 188.94 103.828 186.593 103.291C186.413 103.25 186.282 103.373 186.261 103.545C186.194 104.135 186.128 104.725 186.061 105.317C186.005 105.805 185.811 106.488 185.883 106.976C185.959 107.501 186.628 107.548 187.166 107.56C187.148 107.385 187.14 107.209 187.157 107.031C186.922 107.022 186.68 106.999 186.541 106.891C186.366 106.757 186.43 106.687 186.456 106.456C186.479 106.246 186.503 106.036 186.529 105.822C186.602 105.171 186.677 104.52 186.75 103.869C188.998 104.386 191.246 104.952 193.512 105.382C193.806 105.437 193.934 105.005 193.637 104.926Z" fill="#23276C"/>
<path d="M195.332 105.271C194.425 103.379 192.429 105.397 192.153 106.632C192.153 106.644 192.153 106.655 192.147 106.667C192.083 106.757 192.048 106.877 192.072 107.014C192.136 107.432 192.211 107.846 192.307 108.258C192.383 108.585 192.447 108.953 192.604 109.26C192.578 109.333 192.552 109.403 192.528 109.476C192.432 109.744 192.554 109.963 192.746 110.074C192.863 110.366 193.255 110.568 193.584 110.314C194.907 109.286 196.141 106.959 195.332 105.274V105.271Z" fill="#FFC7B3"/>
<path d="M194.92 107.703C194.699 108.833 194.181 109.426 193.288 110.15C193.044 110.348 193.466 110.748 193.71 110.576C194.702 109.87 195.304 108.673 195.464 107.467C195.502 107.192 194.975 107.429 194.92 107.706V107.703Z" fill="#F2AA91"/>
<path d="M192.322 115.072C192.322 115.148 192.346 115.221 192.36 115.294C192.395 115.461 192.36 115.551 192.221 115.63C192.122 115.685 192.017 115.729 191.909 115.764C191.002 116.062 189.891 115.893 189.01 115.589C188.521 115.423 188.323 115.099 188.146 114.631C188.126 114.579 188.105 114.526 188.088 114.468C188.164 114.439 188.271 114.459 188.408 114.55C188.518 114.623 188.638 114.678 188.763 114.719C189.548 114.982 190.461 114.748 191.217 114.497C191.799 114.304 192.354 114.042 192.919 113.805C193.058 113.747 193.204 113.697 193.349 113.659C193.34 113.975 193.07 114.246 192.837 114.456C192.663 114.614 192.343 114.792 192.322 115.052C192.322 115.058 192.322 115.064 192.322 115.066V115.072Z" fill="#F2AA91"/>
<path d="M188.626 101.834C188.617 101.811 188.605 101.785 188.597 101.761C188.53 101.577 188.265 101.151 188.024 101.224C187.858 101.274 187.707 101.507 187.724 101.683C187.73 101.744 187.762 101.799 187.794 101.852C187.951 102.115 188.105 102.377 188.262 102.637C188.355 102.795 188.471 102.967 188.652 102.999C188.739 103.014 188.838 102.988 188.879 102.909C188.902 102.865 188.905 102.815 188.902 102.766C188.89 102.447 188.742 102.129 188.626 101.834Z" fill="#1A1A1A"/>
<path d="M191.499 126.719C191.499 126.719 191.956 123.008 191.746 121.931C191.537 120.853 197.054 116.871 200.276 116.24C203.499 115.607 204.293 115.648 204.808 115.942C205.325 116.237 206.233 119.218 206.233 119.218C206.233 119.218 208.996 122.296 209.947 124.48C210.898 126.664 198.435 139.353 198.435 139.353L191.496 126.722L191.499 126.719Z" fill="#338DF4"/>
<path d="M205.07 118.834C202.709 118.761 200.315 118.606 198.093 119.558C196.066 120.425 194.987 121.166 193.495 122.769C193.172 123.117 193.92 123.079 194.295 122.784C195.897 121.526 196.264 121.426 198.134 120.55C200.347 119.514 202.802 119.476 205.163 119.429C205.757 119.418 205.681 118.854 205.073 118.837L205.07 118.834Z" fill="#0070F1"/>
<path d="M115.867 187.166C115.867 187.166 103.396 185.665 103.66 188.168C103.925 190.67 130.726 192.67 132.052 190.168C133.378 187.665 115.867 187.166 115.867 187.166Z" fill="#D2D9F4"/>
<path d="M154.92 168.915L123.873 184.631L116.975 181.169L117.772 177.44C117.772 177.44 119.415 175.174 121.803 171.916C127.145 164.631 136.213 152.389 139 149.449C139.215 149.221 139.395 149.046 139.529 148.938C140.986 147.767 145.477 153.901 149.234 159.671C149.583 160.202 149.921 160.731 150.252 161.25C152.873 165.367 154.917 168.917 154.917 168.917L154.92 168.915Z" fill="#FFC7B3"/>
<path d="M128.486 188.719C127.854 189.16 107.26 189.875 105.963 186.897C105.57 186.001 105.582 185.312 105.855 184.777C106.335 183.831 107.513 183.431 108.458 183.154C109.479 182.856 110.451 182.719 111.39 182.188C112.286 181.677 113.08 181.008 113.83 180.302C114.97 179.23 116.035 178.062 117.326 177.183C117.489 177.072 117.684 176.964 117.87 177.026C118.079 177.099 118.158 177.35 118.213 177.566C118.495 178.669 118.958 179.764 119.769 180.561C120.581 181.358 121.796 181.808 122.887 181.484C124.167 181.104 124.995 179.796 126.258 179.367C126.397 179.32 126.546 179.283 126.691 179.306C126.851 179.329 126.991 179.42 127.119 179.516C127.497 179.808 127.924 180.255 128.003 180.737C128.078 181.21 128.116 181.7 128.177 182.179C128.328 183.35 128.465 184.523 128.561 185.703C128.695 187.259 128.724 188.558 128.486 188.725V188.719Z" fill="#ED1A60"/>
<path d="M128.486 188.719C127.854 189.16 107.26 189.875 105.963 186.897C105.57 186.001 105.582 185.312 105.855 184.777C106.175 185.186 107.062 185.776 109.412 186.366C113.423 187.373 125.254 186.477 128.561 185.7C128.695 187.256 128.724 188.555 128.486 188.722V188.719Z" fill="white"/>
<path d="M150.535 160.965C150.535 160.965 150.436 161.067 150.256 161.251C148.179 163.362 135.1 176.159 131.433 176.284C126.16 176.468 121.742 172.036 121.742 172.036L121.803 171.916C127.146 164.632 136.214 152.389 139 149.449L149.238 159.671L150.535 160.965Z" fill="#1A2154"/>
<path d="M140.045 166.077C140.045 166.077 127.583 141.522 129.162 134.594C130.741 127.665 137.372 126.319 140.027 126.582C142.683 126.845 168.719 144.375 168.719 144.375L174.306 152.623L146.47 165.461L140.048 166.077H140.045Z" fill="#393D7B"/>
<path d="M135.165 139.224C134.12 137.846 132.954 135.878 131.837 134.553C131.465 134.112 132.192 134.071 132.579 134.515C136.514 139.017 139.789 144.045 143.677 148.582C147.63 153.195 152.283 157.116 156.611 161.355C157.1 161.834 156.349 162.585 155.863 162.106C151.539 157.863 146.885 153.936 142.939 149.323C140.725 146.736 138.719 143.983 136.689 141.25C136.622 141.25 136.153 140.564 136.078 140.52L135.17 139.221L135.165 139.224Z" fill="#1A2154"/>
<path d="M185.569 130.424C185.569 130.424 180.794 134.687 178.406 135.218C176.018 135.749 175 138.038 174.977 138.225C174.956 138.412 162.75 143.209 162.75 143.209C162.75 143.209 164.608 150.669 169.649 153.332C174.689 155.995 185.834 148.803 185.834 148.803L187.957 135.749L185.569 130.421V130.424Z" fill="#0070F1"/>
<path d="M153.516 136.685C153.516 136.685 150.596 136.95 150.596 137.75C150.596 138.55 152.454 138.282 152.983 138.282C153.126 138.282 153.844 138.007 153.815 138.285C153.807 138.369 153.713 138.413 153.632 138.445C152.937 138.723 152.379 139.277 152.067 139.955C151.875 140.372 151.657 140.886 151.736 141.353C151.838 141.96 152.492 141.893 152.87 141.546C153.152 141.289 153.315 140.927 153.533 140.614C153.903 140.083 154.409 139.759 154.987 139.505C155.319 139.359 155.88 139.298 156.165 139.082C155.726 139.412 155.223 139.955 154.923 140.413C154.379 141.245 154.356 142.305 154.35 143.301C154.35 143.382 154.35 143.473 154.406 143.537C154.455 143.598 154.542 143.619 154.621 143.625C155.014 143.645 155.36 143.347 155.557 143.006C155.755 142.664 155.851 142.273 156.02 141.917C156.252 141.423 156.613 141.073 157.044 140.752C157.308 140.553 157.474 140.238 157.727 140.06C157.788 140.241 157.756 139.946 157.756 140.144C157.756 140.144 156.695 140.676 157.227 141.741C157.756 142.807 162.267 142.007 162.267 142.007L159.879 136.679H153.51L153.516 136.685Z" fill="#C79F91"/>
<path d="M172.7 146.542C172.7 146.542 162.352 144.41 157.841 141.482C153.33 138.55 149.084 134.556 149.084 133.756C149.084 132.956 149.881 132.956 152.533 134.822C152.769 134.477 153.164 134.25 153.572 134.165C153.828 134.113 154.072 134.209 154.328 134.218C154.63 134.226 154.813 134.11 155.052 133.94C155.203 133.832 155.334 133.73 155.511 133.663C155.826 133.546 156.134 133.654 156.445 133.572C156.727 133.496 156.905 133.222 157.146 133.053C157.559 132.764 158.135 132.816 158.589 133.038C159.042 133.26 159.406 133.622 159.79 133.952C161.799 135.68 164.405 136.562 167.011 137.023C169.617 137.485 172.275 137.561 174.902 137.899C173.977 140.723 173.116 143.602 172.706 146.545L172.7 146.542Z" fill="#FFC7B3"/>
<path d="M172.83 148.004C172.83 148.004 169.646 149.601 167.79 148.27C165.932 146.939 165.932 143.476 166.729 140.81C167.525 138.147 169.649 137.347 170.71 137.082C171.772 136.816 174.692 136.816 174.956 137.613C174.956 137.613 179.997 137.879 180.529 137.613C181.058 137.347 180.529 135.482 181.855 134.15C183.181 132.819 184.507 132.285 184.507 132.285C184.507 132.285 184.243 130.953 185.304 129.887C186.366 128.822 187.163 128.822 187.692 127.49C188.221 126.159 189.815 122.962 192.468 122.962C195.12 122.962 197.775 126.159 198.305 132.55C198.834 138.944 186.363 147.733 183.975 148.533C181.587 149.333 172.83 148.001 172.83 148.001V148.004Z" fill="#338DF4"/>
<path d="M174.533 138.016C174.821 137.674 174.428 137.496 174.094 137.805C172.631 139.16 171.389 140.845 171.127 142.877C170.912 144.567 171.368 146.763 172.718 147.905C173.073 148.205 173.617 147.832 173.378 147.394C172.508 145.791 171.735 144.439 172.125 142.515C172.459 140.877 173.483 139.262 174.53 138.018L174.533 138.016Z" fill="#0070F1"/>
<path d="M180.056 137.558C179.649 138.159 178.997 138.983 178.509 140.075C178.282 140.583 178.997 140.746 179.259 140.221C179.745 139.254 180.344 138.556 180.64 137.514C180.78 137.029 180.321 137.164 180.053 137.558H180.056Z" fill="#0070F1"/>
<path d="M178.486 191.669C178.486 191.669 121.436 188.168 121.436 192.67C121.436 197.173 178.559 196.802 178.559 196.802C178.559 196.802 237.128 196.673 237.128 191.669C237.128 188.028 178.486 191.669 178.486 191.669Z" fill="#D2D9F4"/>
<path d="M178.535 192.892C178.535 192.892 135.549 192.892 131.835 190.76C123.386 185.914 121.487 180.904 125.998 173.447C130.509 165.987 140.592 163.59 149.082 161.458C157.574 159.327 177.738 148.404 182.516 145.476C187.292 142.544 197.11 136.419 197.11 136.419C197.11 136.419 199.498 132.156 202.151 129.759C204.803 127.362 207.988 126.562 209.582 124.165C211.172 121.768 212.766 116.174 217.277 114.042C221.788 111.911 225.77 113.777 227.625 116.705C229.484 119.636 229.216 122.565 229.216 122.565C229.216 122.565 231.868 123.896 232.401 125.762C232.93 127.628 231.871 129.49 231.871 129.49C231.871 129.49 233.73 132.688 235.321 138.016C236.912 143.344 237.444 147.604 238.77 153.198C240.096 158.793 242.219 172.378 233.462 181.966C224.705 191.555 212.211 191.648 208.255 192.089C203.48 192.62 178.538 192.889 178.538 192.889L178.535 192.892Z" fill="#F9B546"/>
<path d="M208.198 130.191C204.49 132.016 200.884 134.019 197.362 136.18C196.614 136.638 197.856 136.921 198.612 136.469C202.158 134.346 205.22 133.263 208.917 131.424C209.737 131.015 209.018 129.789 208.198 130.191Z" fill="#D99914"/>
<path d="M108.421 178.193C109.104 182.917 86.16 181.659 57.8557 181.659C29.5515 181.659 5.92383 182.289 5.92383 178.193C5.92383 175.93 28.5277 176.619 56.832 176.619C85.1363 176.619 108.107 176.009 108.424 178.193H108.421Z" fill="#D3D4E2"/>
<path d="M37.6001 160.339C37.6001 160.339 32.3942 178.975 32.7955 179.113C33.194 179.25 35.5294 179.183 35.5294 179.183L43.9637 160.85L37.6001 160.339Z" fill="#844919"/>
<path d="M15.1358 159.627C15.1358 159.627 10.7325 177.679 11.131 177.817C11.5294 177.954 14.0044 177.969 14.0044 177.969L21.4993 160.138L15.1358 159.627Z" fill="#66340E"/>
<path d="M90.337 158.614C90.1857 161.571 90.3428 163.852 90.3428 166.815C90.1567 166.83 89.9705 166.841 89.7873 166.853C86.5677 167.072 83.4151 167.186 80.4863 167.247C76.0656 167.344 72.1684 167.317 69.3676 167.349C66.2382 167.379 63.6323 167.393 61.6953 167.396C60.4767 167.396 59.5199 167.396 58.8713 167.385C58.6619 167.385 58.4845 167.379 58.342 167.379C56.8064 167.341 53.9125 167.306 50.2276 167.241C47.7526 167.192 44.9198 167.13 41.9038 167.046C40.1297 166.996 38.2887 166.935 36.4245 166.865C33.9029 166.763 31.329 166.649 28.7929 166.5C28.4439 166.482 28.1036 166.462 27.7662 166.444C27.4289 166.424 27.0973 166.406 26.7716 166.386C26.5883 166.377 26.4022 166.366 26.219 166.357C26.0125 166.345 25.8089 166.336 25.6082 166.322C25.5995 166.322 25.5879 166.322 25.5762 166.322C25.3872 166.313 25.1981 166.301 25.012 166.29C24.9626 166.29 24.9131 166.284 24.8637 166.281C24.7124 166.275 24.5612 166.263 24.4158 166.255H24.4042C24.2529 166.246 24.1017 166.237 23.9505 166.225C23.8021 166.22 23.6538 166.208 23.5055 166.199C23.235 166.182 22.9703 166.164 22.7086 166.147C22.5922 166.141 22.4759 166.135 22.3596 166.126C22.2287 166.12 22.0978 166.109 21.9728 166.1C21.5889 166.076 21.2166 166.05 20.8501 166.024C20.7018 166.012 20.5564 166.003 20.411 165.992C20.1347 165.974 19.8671 165.951 19.6024 165.933C19.5414 165.928 19.4803 165.922 19.4192 165.916C19.2941 165.907 19.172 165.898 19.0469 165.887C18.7852 165.866 18.5234 165.846 18.2675 165.82C17.9418 165.793 17.6189 165.761 17.3106 165.729C17.3019 165.729 17.2961 165.729 17.2874 165.729C16.8424 165.685 16.412 165.639 15.999 165.586C15.586 165.536 15.1875 165.484 14.8094 165.425C14.7135 165.411 14.6146 165.396 14.5186 165.382L14.251 165.341C14.1958 165.329 14.1376 165.323 14.0794 165.312C14.0504 165.306 14.0155 165.3 13.9835 165.294C13.8933 165.279 13.806 165.265 13.7188 165.247C13.6315 165.233 13.5472 165.218 13.4629 165.201C13.2942 165.168 13.1313 165.136 12.9684 165.098C12.8899 165.081 12.8085 165.063 12.73 165.046C12.5816 165.011 12.4362 164.976 12.2937 164.941C11.7207 164.795 11.2089 164.631 10.7552 164.444C10.7203 164.43 10.6825 164.415 10.6476 164.403C10.444 164.316 10.2549 164.228 10.0746 164.135C10.0455 164.117 10.0135 164.103 9.98445 164.085C9.85357 164.012 9.72851 163.936 9.61217 163.86C9.56855 163.831 9.52201 163.799 9.4813 163.77C9.35333 163.679 9.23409 163.586 9.12357 163.487C9.04795 163.422 8.97524 163.344 8.89671 163.253C8.86763 163.215 8.83564 163.177 8.80655 163.139C8.77747 163.101 8.74548 163.06 8.7164 163.017C8.68731 162.976 8.65532 162.929 8.62624 162.882C8.56225 162.789 8.50118 162.693 8.4401 162.587C8.34994 162.427 8.25396 162.255 8.1609 162.065C8.1289 162.003 8.09982 161.939 8.06492 161.875C7.9544 161.641 7.84388 161.396 7.73337 161.128C7.58795 160.78 7.44544 160.406 7.30002 160.001C7.28257 159.954 7.26803 159.91 7.25348 159.863C7.1895 159.679 7.12261 159.493 7.05862 159.297C7.02663 159.203 6.99464 159.104 6.95974 159.005C6.92775 158.903 6.89575 158.806 6.86376 158.701C6.81432 158.549 6.76488 158.395 6.71543 158.234C6.6689 158.074 6.61946 157.913 6.57292 157.749C6.53802 157.639 6.50894 157.528 6.47113 157.414C6.40715 157.192 6.34607 156.961 6.27918 156.728C6.26173 156.669 6.24428 156.611 6.22974 156.552C6.18029 156.374 6.13085 156.196 6.08432 156.009C6.05233 155.89 6.02033 155.767 5.98543 155.641C5.88946 155.271 5.79057 154.888 5.6946 154.497C5.59862 154.109 5.49973 153.706 5.40376 153.294C5.33977 153.025 5.27579 152.745 5.21181 152.465C5.15945 152.234 5.11001 152.006 5.05766 151.773C5.01694 151.574 4.97041 151.376 4.92969 151.174C4.8977 151.028 4.86571 150.882 4.83372 150.733C4.83372 150.728 4.8279 150.716 4.8279 150.707C4.73483 150.272 4.64467 149.831 4.5516 149.385C4.52252 149.23 4.48762 149.078 4.45854 148.923C4.40619 148.655 4.35093 148.38 4.29858 148.106C4.08917 147.049 3.88559 145.957 3.68782 144.836C3.64419 144.587 3.59766 144.339 3.55403 144.088C3.49586 143.752 3.4377 143.417 3.38244 143.081C3.29228 142.57 3.21084 142.059 3.1265 141.539C3.06833 141.195 3.01307 140.847 2.95782 140.5C2.90256 140.149 2.84439 139.802 2.79204 139.452C2.63208 138.395 2.47503 137.332 2.32088 136.258C2.24236 135.717 2.16965 135.18 2.09403 134.64C1.99805 133.919 1.89917 133.195 1.8061 132.468C1.75957 132.106 1.71303 131.744 1.66941 131.379C1.50072 130.036 1.34367 128.687 1.19825 127.347C1.1459 126.879 1.09646 126.412 1.04992 125.945C1.04992 125.933 1.04992 125.922 1.04411 125.91C1.00921 125.563 0.974305 125.212 0.942313 124.868C0.924863 124.687 0.904504 124.509 0.889962 124.331C0.881237 124.255 0.87542 124.179 0.866695 124.103C0.843428 123.863 0.820161 123.624 0.799803 123.385C0.791078 123.265 0.779444 123.145 0.767811 123.025C0.744544 122.789 0.724185 122.55 0.703826 122.316C0.69801 122.275 0.69801 122.237 0.692193 122.199C0.677651 122.024 0.663109 121.846 0.645659 121.671C0.602033 121.142 0.558408 120.62 0.51769 120.1C0.491515 119.785 0.468248 119.466 0.444981 119.151C0.444981 119.122 0.439164 119.095 0.439164 119.063C0.412989 118.722 0.386814 118.377 0.363547 118.041C0.349005 117.837 0.337371 117.639 0.322829 117.44C0.314104 117.303 0.305379 117.166 0.296654 117.028C0.253028 116.36 0.21522 115.697 0.183228 115.049C0.174502 114.885 0.165777 114.722 0.159961 114.561C0.136694 114.077 0.113427 113.598 0.0959763 113.128C0.0901596 112.967 0.0843428 112.812 0.0785261 112.658C0.0727093 112.617 0.0727093 112.573 0.0727093 112.532C0.0610758 112.263 0.0552591 111.995 0.046534 111.729C0.0378089 111.425 0.0290837 111.122 0.023267 110.824C0.023267 110.678 0.0174502 110.532 0.0174502 110.389C0.0116335 110.091 0.00872512 109.796 0.00581675 109.504C0.00581675 109.358 0 109.212 0 109.072C0 108.284 0.00581675 107.519 0.0203586 106.792C0.0203586 106.643 0.0261754 106.494 0.0319921 106.345C0.0319921 106.199 0.0407172 106.053 0.046534 105.91C0.0523507 105.767 0.0581675 105.624 0.0639842 105.487C0.069801 105.344 0.0756177 105.206 0.0843428 105.066C0.0988847 104.722 0.122152 104.383 0.145419 104.059C0.151235 103.928 0.162869 103.799 0.174502 103.671C0.21522 103.16 0.264662 102.675 0.319921 102.217C0.334463 102.103 0.349005 101.989 0.363547 101.878C0.369363 101.823 0.378089 101.77 0.386814 101.714C0.39263 101.662 0.401356 101.606 0.410081 101.554C0.427531 101.417 0.450798 101.285 0.474065 101.157C0.485698 101.093 0.494424 101.025 0.506057 100.961C0.526416 100.847 0.546774 100.739 0.567133 100.634C0.587491 100.538 0.604942 100.444 0.628209 100.354C0.639842 100.293 0.654384 100.237 0.666018 100.182C0.680559 100.123 0.692193 100.065 0.706735 100.006C0.718368 99.9539 0.73291 99.9043 0.747452 99.8546C0.756177 99.8138 0.767811 99.77 0.779444 99.7291C0.785261 99.7116 0.791078 99.6882 0.796894 99.6648C0.820161 99.5743 0.846337 99.4897 0.872512 99.405C0.939405 99.186 1.01211 98.9816 1.08773 98.7948C1.11682 98.7276 1.14008 98.6663 1.17207 98.605C1.19243 98.5554 1.21279 98.5116 1.23606 98.4678C1.25642 98.424 1.27968 98.3773 1.30004 98.3393C1.31749 98.3101 1.33204 98.2838 1.34658 98.2546C1.36112 98.2284 1.37566 98.205 1.38729 98.1816C1.40474 98.1524 1.41929 98.1291 1.43674 98.0999C1.5269 97.9627 1.64614 97.8605 1.71012 97.7378C2.00969 97.2006 6.68635 96.6751 13.3174 96.2984C14.2627 96.243 15.2515 96.1933 16.2723 96.1437C18.346 96.0473 20.5535 95.9656 22.8395 95.8984C39.2078 95.4225 59.5024 95.8196 61.9513 98.2546C62.8325 99.1305 63.833 101.128 64.8276 103.665C67.0758 109.387 69.3065 117.869 70.1471 122.488C70.2721 123.192 70.3681 123.808 70.4263 124.307C70.7636 127.215 70.8073 126.503 72.0026 129.206C73.4713 132.529 74.7626 131.942 78.1742 132.255C80.9342 132.506 84.4097 132.202 87.0476 133.455C87.766 133.796 88.4204 134.252 88.9846 134.868C90.0142 135.992 90.4969 137.428 90.7151 138.949C90.9507 140.579 90.8809 142.301 90.8634 143.82C90.7936 148.763 90.5813 153.685 90.3312 158.622L90.337 158.614Z" fill="#E5F1FE"/>
<path d="M9.12589 163.475C11.4933 165.577 17.7172 165.864 28.7894 166.497C29.7201 166.056 30.6798 165.218 31.2063 163.642C32.451 159.913 28.3793 131.586 22.3735 128.135C15.7046 124.302 12.139 127.157 9.10844 120.859C6.07791 114.559 9.88497 99.668 3.47782 97.6564C2.77982 97.4374 2.09926 97.6097 1.43905 98.0885C-3.12127 105.23 4.21364 159.116 9.12298 163.478L9.12589 163.475Z" fill="#A89F6B"/>
<path d="M74.1927 132.272C74.6464 131.998 75.1786 131.878 75.7428 131.846C75.228 131.72 74.7249 131.563 74.2421 131.376C74.0909 131.437 73.9425 131.51 73.7971 131.598C73.3667 131.861 73.7622 132.535 74.1927 132.272Z" fill="#978C50"/>
<path d="M90.1963 161.565C83.0533 161.396 77.2133 161.11 74.2322 161.452C66.3854 162.351 48.8828 162.319 43.9822 158.167C43.1679 157.475 42.752 156.727 42.7142 155.875C42.5687 152.663 42.6298 149.574 42.688 146.587C42.7607 142.888 42.8305 139.396 42.4786 136.301C42.4379 135.939 42.3942 135.603 42.3448 135.276C41.5828 130.149 39.4655 126.798 35.6904 124.728C31.7961 122.596 26.5552 123.195 21.9338 123.723C17.7429 124.202 13.7846 124.652 11.5422 123.052C11.3735 122.929 11.135 122.97 11.0129 123.136C10.8907 123.306 10.9286 123.539 11.1001 123.662C13.581 125.434 17.6789 124.967 22.0182 124.471C26.7501 123.93 31.642 123.373 35.324 125.387C38.9246 127.361 40.8586 130.444 41.5974 135.387C41.6468 135.706 41.6904 136.033 41.7282 136.383C42.0743 139.428 42.0045 142.9 41.9347 146.573C41.8766 149.571 41.8155 152.672 41.9609 155.907C42.0074 156.964 42.5251 157.919 43.4936 158.739C47.1494 161.837 56.6453 162.666 64.495 162.666C68.5551 162.666 72.176 162.444 74.3224 162.199C77.2715 161.86 83.0678 162.144 90.1701 162.316C90.1788 162.065 90.1875 161.817 90.1992 161.565H90.1963Z" fill="#99C6F9"/>
<path d="M58.8689 167.381C58.6624 167.381 58.485 167.378 58.3396 167.372C56.8069 167.334 53.9101 167.302 50.2252 167.235C50.7778 162.359 46.1797 137.448 46.1797 137.448L56.2427 145.369L58.866 167.381H58.8689Z" fill="#99C6F9"/>
<path d="M90.9334 132.707L90.724 138.941L89.7846 166.853C86.565 167.072 83.4123 167.186 80.4865 167.247C80.4894 167.241 80.4923 167.235 80.4952 167.23C82.8714 162.973 80.8093 142.319 79.105 139.831C76.9383 136.666 72.5176 136.225 72.5176 136.225L87.0565 133.449L90.9305 132.71L90.9334 132.707Z" fill="#99C6F9"/>
<path d="M70.1552 122.477L57.4892 123.633L53.752 105.805L64.8358 103.65C67.0839 109.373 69.3147 117.855 70.1552 122.474V122.477Z" fill="#CCE2FC"/>
<path d="M58.1908 89.8555L64.502 90.3255L65.2029 102.288L55.6227 114.486L51.1816 107.213L58.1908 89.8555Z" fill="white"/>
<path d="M60.5281 120.349C60.5281 120.349 62.1626 119.175 62.3982 117.767C62.6309 116.36 61.6973 114.483 62.3982 110.731C63.0991 106.979 63.3318 110.965 63.3318 110.965C63.3318 110.965 66.3681 113.779 66.8364 114.953C67.3046 116.127 68.8955 118.214 69.2678 118.343C69.6401 118.471 74.3138 115.186 74.3138 115.186L70.722 100.874L67.3017 90.5558C67.3017 90.5558 64.2654 87.7412 63.0962 87.2712C61.9271 86.8011 62.721 90.7631 62.721 90.7631L63.4452 90.6726C63.4452 90.6726 62.977 97.7091 59.708 104.749C56.436 111.785 55.9707 117.651 55.9707 117.651L56.1219 120.422L60.5281 120.349Z" fill="#1A2154"/>
<path d="M59.2396 92.4829C59.2396 92.4829 59.2542 92.4975 59.26 92.5033C60.9119 94.0245 63.003 92.6639 63.4335 90.7048C63.4219 90.6931 63.4131 90.6814 63.4044 90.6727C63.384 90.6493 63.3695 90.623 63.3637 90.6026C63.2444 90.2172 63.2386 89.4668 63.2648 88.769C63.2823 88.3136 63.3142 87.8814 63.3404 87.5865C63.3608 87.3617 57.1921 77.7676 57.1921 77.7676C57.1921 77.7676 57.9599 81.8814 56.0898 83.7588C56.2673 85.534 57.7418 89.7909 59.2425 92.4858L59.2396 92.4829Z" fill="#844919"/>
<path d="M63.4036 90.6725C63.3833 90.6492 63.3687 90.6229 63.3629 90.6024C63.2437 90.217 63.2379 89.4667 63.264 88.7689C63.2815 88.3134 63.3135 87.8813 63.3397 87.5864L63.0663 87.3411C63.0459 87.1659 62.9848 86.9878 62.9354 86.7805C62.8801 86.5441 62.8336 86.2696 62.8714 85.9251C62.8714 85.9192 62.8714 85.9134 62.8714 85.9046C61.426 84.1149 59.8613 82.1791 58.8666 81.9484C58.6892 81.9046 58.5263 81.9163 58.3867 81.9893C58.1337 82.1207 57.9388 82.4506 57.8923 83.0492C57.4677 88.3076 62.1647 90.5411 63.4066 90.6725H63.4036Z" fill="#66340E"/>
<path d="M105.306 179.469C105.646 184.193 94.1928 182.935 80.0639 182.935C65.935 182.935 54.1387 183.566 54.1387 179.469C54.1387 177.207 65.4232 177.896 79.552 177.896C93.6809 177.896 105.149 177.285 105.306 179.469Z" fill="#D3D4E2"/>
<path d="M98.2636 133.837C98.2636 135.627 96.4226 140.433 96.283 144.827C96.2103 147.13 94.4973 151.095 94.4013 153.466C94.1366 160.059 92.3771 163.56 92.0862 164.141C91.4958 165.326 89.5996 166.339 85.0625 166.736C80.5313 167.13 81.5172 164.757 81.5172 164.757L83.9835 137.335L84.0039 137.119C84.0039 137.119 83.6578 137.133 83.0441 137.151C80.0339 137.233 70.5323 137.329 63.3311 135.711C62.7262 135.577 62.13 135.425 61.5599 135.265C61.4582 135.236 61.3593 135.206 61.2604 135.177C52.5905 132.608 57.2468 120.111 57.2468 120.111L58.5905 120.088L70.3316 119.878C70.3316 119.878 70.9307 119.872 71.937 119.872C76.3025 119.872 88.3373 120.027 92.1793 121.638C96.9083 123.615 98.2549 128.494 98.2549 133.837H98.2636Z" fill="#7B7DA7"/>
<path opacity="0.5" d="M71.9452 119.872C65.2036 125.72 63.6825 132.874 63.3393 135.714C62.7315 135.577 62.1381 135.428 61.5681 135.268L58.6016 120.094L70.3398 119.884C70.3398 119.884 70.9389 119.878 71.9452 119.878V119.872Z" fill="#4F5289"/>
<path d="M58.9043 134.584C58.9043 134.584 72.3061 134.981 76.8402 137.749C81.3744 140.52 77.6284 152.193 77.6284 152.193L59.1021 143.685L58.9043 134.584Z" fill="#E5F1FE"/>
<path d="M89.9494 127.235C88.0095 129.244 84.883 134.45 84.057 137.194C84.0425 137.247 84.0192 137.294 83.9901 137.335L84.0105 137.119C84.0105 137.119 83.6644 137.133 83.0507 137.151C83.0507 137.121 83.0449 137.092 83.0449 137.057C83.0798 134.508 83.391 133.18 83.9611 130.695C84.0978 130.085 84.6852 130.088 84.5515 130.695C84.2199 132.213 84.3246 132.812 84.1966 134.357C85.2407 132.608 87.1632 129.238 88.6494 127.822C89.1089 127.387 90.3857 126.783 89.9465 127.238L89.9494 127.235Z" fill="#656898"/>
<path d="M85.897 162.59C85.897 162.59 92.8625 161.986 91.9231 163.291C91.8504 163.848 91.3007 164.613 90.9343 164.838C88.087 166.607 81.6973 166.254 81.6973 166.254L85.894 162.59H85.897Z" fill="#1A1A1A"/>
<path d="M80.7832 167.875C80.7832 167.875 81.362 165.437 81.5132 164.275C81.5132 164.275 82.9267 161.875 91.1777 162.581C91.1777 162.581 90.09 165.758 90.6164 167.168C91.1428 168.578 88.6853 170.517 88.6853 170.517L81.1351 169.811L80.7832 167.872V167.875Z" fill="#844919"/>
<path d="M103.085 176.868C102.207 178.278 96.5877 178.806 94.831 178.806C93.0744 178.806 86.2251 178.278 82.8892 177.221C80.0827 176.33 78.9862 175.066 78.5587 173.849C78.4801 173.618 78.4394 173.39 78.4394 173.165C78.4394 172.742 78.2097 172.068 78.5383 171.329C79.3119 169.6 80.6062 167.525 80.6062 167.525C81.1326 166.643 82.0109 168.406 83.9421 168.581C85.8732 168.757 89.7385 166.465 90.9658 166.114C92.196 165.761 93.4234 166.468 95.18 168.76C96.9367 171.052 100.563 170.164 101.881 171.49C102.582 172.193 102.748 172.523 103.036 173.323C103.257 173.936 103.399 174.576 103.428 175.171C103.463 175.819 103.361 176.415 103.079 176.868H103.085Z" fill="#FDD898"/>
<path d="M103.085 176.867C102.207 178.277 96.5877 178.806 94.831 178.806C93.0744 178.806 86.2251 178.277 82.8892 177.22C80.0827 176.33 78.9862 175.065 78.5587 173.848C78.4801 173.617 78.4394 173.39 78.4394 173.165C78.4394 172.741 78.2097 172.067 78.5383 171.328C78.9658 171.045 79.6435 170.785 80.6934 170.785C82.9765 170.785 86.1379 172.195 88.9474 172.02C91.7569 171.845 95.2702 171.314 99.307 171.667C101.352 171.845 102.451 172.61 103.036 173.322C103.257 173.936 103.399 174.575 103.428 175.171C103.463 175.819 103.361 176.414 103.079 176.867H103.085Z" fill="white"/>
<path d="M103.433 175.171C102.517 172.859 96.3772 172.745 93.1635 173.253C89.8276 173.782 87.719 174.31 86.3142 173.96C84.9095 173.606 79.9914 171.843 78.5867 172.725C78.1359 173.008 78.4965 173.42 78.5576 173.849C78.9851 175.066 80.0816 176.33 82.8882 177.221C86.2241 178.278 93.0733 178.806 94.83 178.806C96.5866 178.806 102.206 178.278 103.084 176.868C103.366 176.415 103.468 175.82 103.433 175.171Z" fill="#23276C"/>
<path d="M63.5912 163.808C63.5912 164.132 63.2306 165.035 62.774 165.47C62.1167 166.095 60.9562 166.27 57.821 166.734C52.4987 167.525 53.5777 165.622 53.3799 165.227C53.281 165.026 52.3736 159.49 50.7769 152.547C50.1225 149.7 48.2205 145.753 47.5952 143.157C46.7285 139.56 45.2801 134.88 45.2219 134.538C45.2219 134.538 40.0799 132.661 28.397 131.49C28.397 131.49 23.9501 123.989 27.6961 120.232C27.6961 120.232 34.4726 115.07 48.0256 117.887C54.0139 119.131 58.5394 119.998 60.4095 125.16C60.9679 126.699 61.5932 129.677 62.233 133.143C62.8525 136.497 61.2849 142.197 62.5384 144.033C64.0042 146.185 63.0648 150.354 62.6344 154.197C62.0818 159.14 63.5883 163.02 63.5883 163.811L63.5912 163.808Z" fill="#7B7DA7"/>
<path d="M45.2213 134.542C44.3546 130.32 44.0231 126.585 44.3459 122.273C44.3837 121.783 43.7497 121.24 43.7148 121.727C43.5345 124.153 43.4094 127.181 43.6566 129.631C43.0808 128.01 42.8656 126.285 42.6707 124.577C42.6416 124.337 42.2635 124.334 42.2926 124.577C42.5427 126.723 42.7492 129.461 43.7177 131.421C43.709 131.409 43.7264 131.435 43.7177 131.421C43.9126 132.866 43.9969 132.88 44.3837 134.276C44.7182 134.384 45.1166 134.475 45.2243 134.542H45.2213Z" fill="#656898"/>
<path d="M63.1432 164.734C62.736 165.333 62.736 165.234 62.6429 165.362C61.2847 166.101 59.5484 166.454 57.7743 166.717C56.1543 166.959 55.1102 166.959 54.3715 166.81C53.6444 166.664 53.7578 166.15 53.659 165.844C53.5281 165.438 53.5135 165.33 53.467 165.009C53.3478 164.471 53.214 164.133 53.6851 163.739C54.2086 163.301 54.7176 162.968 55.1248 162.769C55.6105 162.533 56.1427 162.311 56.6488 162.133C56.6488 162.133 58.6934 161.593 58.705 161.593C59.9527 161.429 61.2905 161.339 61.9507 161.271C63.1054 161.8 63.2362 162.615 63.3671 163.216C63.5591 164.095 63.1868 164.612 63.1403 164.726L63.1432 164.734Z" fill="#1A1A1A"/>
<path d="M62.8409 170.93L56.1894 172.527L54.8516 166.866L53.6562 163.712C54.1798 163.274 54.7963 162.945 55.2064 162.746C55.6921 162.509 56.1865 162.308 56.6955 162.133C56.6955 162.133 58.6994 161.601 58.711 161.601C59.9587 161.438 61.0319 161.336 61.9567 161.28L62.3377 165.231L62.8438 170.93H62.8409Z" fill="#844919"/>
<path d="M67.9238 178.888C67.5661 179.247 55.3626 179.609 54.6471 179.247C53.984 178.915 54.0858 176.897 54.2458 176.021C54.2574 175.948 54.2719 175.881 54.2865 175.825C54.4668 175.104 54.7344 174.474 54.9147 173.755C55.095 173.034 54.842 170.675 55.0223 170.494C55.2026 170.313 55.38 170.313 55.7407 169.954C56.0984 169.595 56.0984 166.71 56.6364 166.532C56.6364 166.532 61.8395 165.633 62.7382 165.992C63.634 166.351 64.3349 170.783 65.0533 171.326C65.7716 171.866 67.2055 172.407 68.1042 174.57C68.2089 174.821 68.2903 175.066 68.3543 175.306C68.84 177.128 68.2438 178.573 67.9267 178.891L67.9238 178.888Z" fill="#FDD898"/>
<path d="M67.9238 178.888C67.5661 179.247 55.3626 179.609 54.6471 179.247C53.984 178.914 54.0858 176.897 54.2458 176.021C55.0107 176.109 58.8119 176.509 62.1827 176.184C64.7043 175.942 67.0659 175.542 68.3543 175.3C68.84 177.122 68.2438 178.567 67.9267 178.885L67.9238 178.888Z" fill="white"/>
<path d="M65.5004 171.414C62.6502 169.919 60.3264 171.032 57.5489 172.156C57.1941 172.299 57.3395 172.886 57.7117 172.746C60.3031 171.759 63.2086 171.087 65.861 172.497C66.2565 172.708 65.8988 171.624 65.5033 171.417L65.5004 171.414Z" fill="#FCB946"/>
<path d="M14.4638 124.398C14.4638 124.398 17.5235 124.521 24.5675 123.668C31.6116 122.815 37.2888 124.267 40.1651 129.575C43.0415 134.883 42.2912 142.599 42.2912 142.599L19.5855 145.963L14.4609 124.398H14.4638Z" fill="#E5F1FE"/>
<path d="M9.12589 163.475C11.4933 165.577 17.7172 165.864 28.7894 166.497C29.7201 166.056 30.6798 165.218 31.2063 163.642C32.451 159.913 28.3793 131.586 22.3735 128.135C15.7046 124.302 12.139 127.157 9.10844 120.859C6.07791 114.559 9.88497 99.668 3.47782 97.6564C2.77982 97.4374 2.09926 97.6097 1.43905 98.0885C-3.12127 105.23 4.21364 159.116 9.12298 163.478L9.12589 163.475Z" fill="#CCE2FC"/>
<path d="M41.7292 136.383C42.0753 139.428 42.0055 142.9 41.9357 146.573C41.8892 149.011 41.8397 151.519 41.9008 154.108C42.1509 154.059 42.404 154.009 42.6541 153.963C42.5988 151.431 42.6454 148.976 42.6919 146.587C42.7646 142.888 42.8344 139.396 42.4825 136.301C42.4418 135.939 42.3982 135.603 42.3487 135.276C41.5867 130.149 39.4694 126.798 35.6944 124.728C31.8 122.596 26.5592 123.195 21.9377 123.723C17.7468 124.202 13.7885 124.652 11.5461 123.052C11.3774 122.929 11.139 122.97 11.0168 123.136C10.8946 123.306 10.9325 123.539 11.1041 123.662C13.5849 125.434 17.6828 124.967 22.0221 124.471C26.754 123.93 31.6459 123.373 35.3279 125.387C38.9285 127.361 40.8625 130.444 41.6013 135.387C41.6507 135.706 41.6943 136.033 41.7321 136.383H41.7292Z" fill="#99C6F9"/>
<path d="M60.8805 94.4276C60.8805 95.1313 53.6561 110.001 53.6561 110.001L47.4613 116.139L45.4574 118.121C45.4574 118.121 43.2209 117.981 41.1036 117.66C40.426 117.558 39.7599 117.435 39.187 117.295C36.8138 116.711 33.1899 120.112 32.0208 120.582C30.8516 121.05 28.3998 120.699 27.6989 121.166C26.998 121.636 26.7304 122.877 26.1807 122.927C25.6311 122.974 26.8817 118.702 27.5826 116.828C28.2835 114.953 31.0872 109.791 31.5554 107.914C32.0208 106.039 35.8773 98.1795 38.4483 94.6612C41.0193 91.143 43.4739 90.086 46.9756 88.4452C50.2446 86.9123 53.0047 85.2831 53.7405 84.8773C53.7928 84.8481 53.8365 84.8247 53.8685 84.8101C53.9557 84.7663 54.0342 84.6933 54.1099 84.6057C54.2727 84.4218 54.4152 84.1707 54.5752 84.0247C54.8718 83.7532 55.2179 83.5313 55.5873 83.3707C55.6455 83.3444 55.7153 83.3182 55.7793 83.3269C55.9101 83.3415 55.9916 83.4758 56.041 83.5984C56.2388 84.086 56.5878 84.5532 56.8263 85.0379C57.1142 85.616 57.3876 86.1999 57.661 86.7868C58.199 87.9605 58.7138 89.143 59.2373 90.3225C59.6358 91.2276 60.0342 92.1357 60.4036 93.0554C60.5606 93.4495 60.8805 93.9926 60.8805 94.4306V94.4276Z" fill="#23276C"/>
<path d="M47.4577 116.138L45.4538 118.121C45.4538 118.121 43.2172 117.981 41.1 117.662C39.5033 111.963 40.1955 98.0623 40.2129 97.7295L47.4577 116.141V116.138Z" fill="#1A2154"/>
<path d="M60.0601 95.0142C58.6321 95.312 57.1837 96.1646 55.9884 97.0055C55.7034 97.2069 55.4067 96.9266 55.3718 96.6493C54.892 92.8186 54.8658 88.6084 53.7402 84.877C53.7926 84.8478 53.8362 84.8244 53.8682 84.8098C53.9555 84.7661 54.034 84.6931 54.1096 84.6055C54.1096 84.6113 54.1154 84.6171 54.1183 84.623C55.2729 88.2113 55.6569 92.2259 56.1018 95.9339C57.1925 95.2244 58.3704 94.731 59.6646 94.4653C60.2143 94.3514 60.6127 94.9004 60.0601 95.0171V95.0142Z" fill="#1A2154"/>
<path d="M69.9775 111.265C69.9775 111.265 67.5432 113.709 68.0289 116.889C68.5146 120.068 70.2218 120.801 72.6562 120.801C75.0905 120.801 76.5534 122.267 78.2577 119.823C79.962 117.379 81.1806 112.001 77.2834 109.067C73.3862 106.132 69.9775 111.268 69.9775 111.268V111.265Z" fill="#23276C"/>
<path d="M54.9219 109.794C54.9219 109.794 63.3329 99.7066 63.5685 98.5358C63.8011 97.3621 63.1002 95.0176 63.3358 94.3139C63.5685 93.6103 64.0367 93.3767 64.0367 93.3767C64.0367 93.3767 62.4022 93.1431 62.8676 92.4395C63.3358 91.7358 64.7376 91.0322 64.7376 91.0322C64.7376 91.0322 63.3358 91.5023 63.3358 90.5621C63.3358 89.622 66.8404 88.4512 67.3086 88.4512C67.7216 88.4512 68.0881 88.6877 68.3324 89.0234C68.5767 89.3592 68.8443 89.7534 69.2573 89.7826C69.4376 89.7972 69.6208 89.7329 69.8011 89.765C70.0861 89.8147 70.2752 90.0891 70.3828 90.3577C70.4904 90.6264 70.5544 90.9212 70.7347 91.1461C70.9761 91.4468 71.3687 91.5607 71.709 91.7417C72.9334 92.3957 73.3959 93.8935 73.7449 95.2424C75.0187 100.165 76.2955 105.088 77.5694 110.007C77.5694 110.007 76.7783 118.594 72.8055 117.42C68.8326 116.247 69.7691 112.258 69.5335 110.618C69.3009 108.977 68.8326 102.877 68.8326 102.877C68.8326 102.877 58.7842 119.298 58.5515 119.298C58.3189 119.298 54.9306 109.797 54.9306 109.797L54.9219 109.794Z" fill="#844919"/>
<path d="M72.2672 95.2252C71.6768 94.7231 70.7025 94.4632 69.9783 94.3289C69.1116 94.1683 68.053 94.5012 67.2648 94.2267C66.9274 94.1099 66.9332 93.9493 66.6686 93.8063C66.4592 93.6924 66.2352 93.7012 66.052 93.6107C65.8979 93.5961 65.7466 93.6048 65.5954 93.6369C65.4994 93.6574 65.6623 93.0822 65.6826 93.0384C65.7932 92.8223 65.9473 92.618 66.1189 92.4486C66.4563 92.1187 66.8634 91.8763 67.2503 91.6048C67.544 91.4004 67.6749 90.9888 67.1805 91.0997C66.8373 91.1756 66.465 91.4355 66.1654 91.6136C65.5081 92.0019 64.8218 92.5099 64.5106 93.234C64.2226 93.9085 64.5251 94.4077 65.2289 94.5245C65.7757 94.615 65.9037 94.4778 66.337 94.8194C66.6366 95.0559 66.8489 95.2077 67.2444 95.2428C67.8465 95.2982 68.4689 95.1114 69.0796 95.1464C69.6613 95.1785 70.8741 95.2311 70.9992 95.9815C71.0515 96.2909 70.9003 96.615 70.9788 96.9187C71.0195 97.0763 71.1329 97.2282 71.1417 97.3946C71.1504 97.5552 71.0748 97.7566 71.037 97.9143C70.9352 98.3377 70.72 98.726 70.5047 99.0997C69.9143 100.139 69.6351 101.079 68.9429 102.054C68.6085 102.525 69.0156 103.041 69.3443 102.571C70.2662 101.249 71.3889 99.7537 71.9298 98.2238C72.0171 97.9785 72.084 97.6661 72.0113 97.4092C71.9444 97.1669 71.7321 97.018 71.6332 96.8019C71.4849 96.4807 71.6564 96.034 71.543 95.6778C71.5547 95.7187 72.526 95.9727 72.6075 95.9055C72.8023 95.7479 72.4824 95.4267 72.3661 95.3128C72.337 95.2836 72.305 95.2544 72.2701 95.2282L72.2672 95.2252Z" fill="#66340E"/>
<path d="M54.6854 109.09C54.4411 109.04 54.2666 109.029 54.1387 109.04C54.508 108.451 55.0664 107.361 54.5691 106.862C53.8682 106.159 52.9346 105.688 52.9346 105.688C52.9346 105.688 53.6355 103.344 52.9346 102.17C52.2337 100.997 51.0645 97.2447 51.0645 97.2447C51.0645 97.2447 48.7291 91.379 44.7563 91.8491C40.7834 92.3192 40.1988 96.8914 40.1988 96.8914C40.1988 96.8914 39.9662 102.757 42.5343 111.671C45.1053 120.585 46.0388 120.818 46.9753 121.522C47.9089 122.226 49.779 122.696 50.7126 122.929C51.6462 123.163 53.7489 122.459 53.7489 122.459C53.7489 122.459 54.8629 122.947 56.5264 122.118C58.19 121.288 59.5919 119.881 59.5919 119.411C59.5919 118.941 55.8546 109.324 54.6854 109.09Z" fill="#23276C"/>
<path d="M54.9656 74.7076C55.3437 76.22 55.652 77.7791 56.2569 79.2214C56.6496 80.1528 57.1993 81.6448 58.2259 82.0506C59.2729 82.4623 60.8144 82.1879 61.8817 81.9426C63.397 81.5981 64.6214 80.766 65.8575 79.8579C66.8783 79.1047 67.9864 78.3134 68.6437 77.1981C69.0742 76.4682 69.1876 75.6623 69.1847 74.8419C69.7314 74.7601 70.1851 74.4273 70.4469 73.9017C70.6098 73.5747 70.6127 73.2798 70.6476 72.9353C70.6854 72.5412 70.6854 72.1207 70.8512 71.7674C70.9471 71.5601 71.1449 71.4054 71.2351 71.1893C71.8226 69.8112 70.7523 67.9222 69.7547 67.0229C69.3504 66.658 68.952 66.4331 68.7193 65.9047C68.5855 65.601 68.603 65.3616 68.3616 65.1017C67.8643 64.5704 67.1168 64.7018 66.4741 64.8273C66.0872 64.9003 65.6277 65.0025 65.1508 65.1397C64.3219 64.7631 63.3563 64.693 62.4547 64.6755C61.0063 64.6492 59.5318 64.6784 58.1707 65.2244C57.1265 65.6448 56.0039 66.3222 55.4659 67.3558C55.3873 67.5047 55.3234 67.6565 55.2681 67.8142C54.1106 69.893 54.4043 72.4594 54.9685 74.7134L54.9656 74.7076Z" fill="#FDDDC4"/>
<path d="M57.0664 80.7634C57.1536 81.3765 57.6248 81.7356 58.0348 81.9692C58.3868 82.1707 58.695 81.9634 58.5962 83.1751C58.5147 84.194 58.3751 85.4115 59.2825 85.9342C60.0853 86.3955 62.1357 87.4407 63.0518 87.5254C65.076 87.7152 66.8938 87.3531 67.9844 85.2918C69.3542 82.6962 69.5316 79.0904 69.5229 75.6743C69.5229 75.3619 69.5142 75.0524 69.5026 74.7459C69.4589 73.4349 69.3281 72.1794 69.1274 71.0699C68.9791 70.2612 68.7348 69.4495 68.2752 68.7634C67.1381 67.0845 64.8172 66.8481 62.9704 67.032C61.0625 67.2276 59.6752 67.9488 58.3082 69.2918C56.9064 70.667 56.9064 72.7342 56.7319 74.5882C56.5341 76.7692 56.7639 78.5969 57.0722 80.7634H57.0664Z" fill="#844919"/>
<path d="M56.2574 78.1669C56.2545 79.3728 56.5511 81.4253 56.7256 82.5085C56.7489 82.6487 56.8943 82.4648 56.9496 82.3334C57.3742 81.3085 57.9152 76.9086 58.1711 74.6691C58.1856 74.8064 58.2031 74.9407 58.2205 75.0721C58.2409 75.2297 58.4474 75.2297 58.4648 75.0721C58.5725 74.0326 58.2758 72.5932 59.0465 71.7611C59.8521 70.891 61.0824 70.9232 62.1614 70.9056C63.0339 70.891 63.7174 70.5027 64.5579 70.3538C65.8492 70.1261 66.6374 70.7188 67.7047 71.2677C68.2748 71.5626 69.4818 71.9392 69.7464 71.1013C70.0518 70.1348 69.3131 68.7947 68.6878 68.1232C67.7891 67.1567 66.5937 66.9261 65.3373 66.7859C63.7581 66.6107 62.2574 66.6429 60.7508 67.1947C59.4362 67.6764 58.0809 68.4414 57.0805 69.437C56.1672 70.3451 56.0334 71.6618 56.0073 72.891C55.9695 74.6487 56.2632 76.4005 56.2603 78.1582L56.2574 78.1669ZM56.2574 78.1669C56.2545 79.3728 56.6733 81.4107 56.7256 82.5085C56.7489 83.0341 56.8943 82.4648 56.9496 82.3334" fill="#FDDDC4"/>
<path d="M55.9281 78.1907C56.1172 78.9207 56.8937 81.0871 57.7546 80.5849C58.4875 80.1586 57.836 76.1791 57.836 76.1791C57.836 76.1791 57.583 74.8915 56.5941 75.0141C55.4308 75.1601 55.6838 77.2418 55.9252 78.1878L55.9281 78.1907Z" fill="#844919"/>
<path d="M67.6194 77.2565C67.6659 77.0346 67.7648 76.839 67.9277 76.728C68.0848 76.62 68.2912 76.7163 68.4018 76.8945C68.5123 77.0726 68.5414 77.312 68.5472 77.5426C68.553 77.8258 68.5094 78.1382 68.3407 78.3251C67.8114 78.912 67.5118 77.7762 67.6194 77.2565Z" fill="black"/>
<path d="M61.594 77.362C61.6406 77.1401 61.7394 76.9444 61.9023 76.8335C62.0594 76.7255 62.2659 76.8218 62.3764 76.9999C62.4869 77.178 62.516 77.4174 62.5218 77.6481C62.5276 77.9313 62.484 78.2437 62.3153 78.4306C61.786 79.0174 61.4864 77.8817 61.594 77.362Z" fill="black"/>
<path d="M59.4928 75.0986C60.2228 74.6227 61.3483 74.4124 62.2034 74.4387C62.4186 74.4445 62.6367 74.4708 62.8287 74.5672C63.1777 74.7365 63.5325 75.4022 63.0323 75.6183C62.8956 75.6767 62.7385 75.6796 62.5873 75.6796C61.6421 75.6796 60.6939 75.6796 59.7487 75.6767C59.5626 75.6767 59.3241 75.6358 59.2834 75.4548C59.2514 75.3117 59.3503 75.1949 59.4928 75.1015V75.0986Z" fill="#FDDDC4"/>
<path d="M66.6924 75.6187C66.8261 75.6771 66.9832 75.6771 67.1344 75.6771C67.9284 75.6771 68.7224 75.6771 69.5164 75.6742C69.5164 75.3618 69.5077 75.0523 69.496 74.7457C68.8591 74.518 68.1204 74.4187 67.5183 74.4391C67.3031 74.4479 67.0821 74.4742 66.893 74.5676C66.5411 74.7369 66.1863 75.4026 66.6895 75.6187H66.6924Z" fill="#FDDDC4"/>
<path d="M64.6908 80.8941C65.5081 80.8561 66.6017 81.1423 66.4068 79.6912C66.3312 79.1364 66.0403 78.5671 65.9444 77.9977C65.8367 77.3525 65.5546 76.4707 66.0694 75.9569C66.1625 75.8634 66.3021 75.9802 66.2468 76.0941C65.8891 76.786 66.3079 78.1817 66.5318 78.9174C66.6773 79.3933 67.0903 79.9977 66.9826 80.5233C66.7907 81.4576 65.3627 81.2853 64.6938 81.2328C64.4785 81.2152 64.4756 80.9058 64.6938 80.8941H64.6908Z" fill="#66340E"/>
<path d="M57.9503 80.9818C57.9968 81.9511 58.2585 84.6752 58.7239 85.5657C59.1311 86.3394 60.1781 87.3088 60.943 87.6825C62.5717 88.4708 64.337 88.7336 66.1141 88.0416C67.385 87.5482 68.2895 86.2898 68.7549 85.0519C68.8392 84.8124 69.2376 83.2416 68.7927 83.2095C68.5222 83.1891 68.1732 84.1526 68.0539 84.3599C67.6264 85.0898 66.8906 85.3351 66.1606 85.6854C65.1136 86.1818 64.3603 86.0942 63.258 85.7876C62.9585 85.703 62.656 85.6708 62.3564 85.6037C61.3356 85.3584 61.4083 85.3409 60.8935 84.719C60.4864 84.2227 59.8174 83.9044 59.608 83.2738C59.3346 82.4621 59.3783 81.4168 59.2736 80.5672C59.1281 79.3584 59.0642 78.065 58.6715 76.8942C58.6715 76.8738 58.6686 76.8504 58.6628 76.83C58.6512 76.6957 58.6366 76.5643 58.6163 76.43C58.5319 75.7876 58.3952 75.1482 58.2324 74.5117C58.1626 74.2548 57.8165 74.3365 57.7961 74.573C57.7525 75.0227 57.7234 75.4256 57.706 75.7993C57.703 75.919 57.6972 76.0387 57.6943 76.1555C57.6565 77.7935 57.8485 78.9263 57.9503 80.9818Z" fill="#FDDDC4"/>
<path d="M66.2587 82.8535C65.677 82.6696 65.0459 82.7513 64.5078 83.0287C64.3537 83.1075 64.3159 83.3528 64.4118 83.4871C64.5253 83.6448 64.694 83.6448 64.8685 83.5834C65.1448 83.4871 65.392 83.4287 65.4501 83.4229C65.8166 83.3732 65.9969 83.4637 66.1132 83.5017C66.279 83.5542 66.4768 83.4141 66.5059 83.2506C66.5379 83.0608 66.4303 82.9119 66.2558 82.8564L66.2587 82.8535Z" fill="#66340E"/>
</g>
<defs>
<clipPath id="clip0_1892_15838">
<rect width="240" height="240.001" fill="white" transform="translate(0 0.0546875)"/>
</clipPath>
</defs>
</svg>
